<?xml version="1.0" encoding="utf-8"?>
<!-- Generator: Adobe Illustrator 19.2.0, SVG Export Plug-In . SVG Version: 6.00 Build 0)  -->
<svg version="1.1" id="Слой_1" xmlns="http://www.w3.org/2000/svg" xmlns:xlink="http://www.w3.org/1999/xlink" x="0px" y="0px"
	 viewBox="0 0 95 30" style="enable-background:new 0 0 95 30;" xml:space="preserve">
<style type="text/css">
	.st0{fill:#009D56;}
	.st1{fill:#3D81F6;}
	.st2{fill:#DE4431;}
	.st3{fill:#007E44;}
	.st4{fill:#F5B400;}
	.st5{fill:#C49000;}
	.st6{opacity:0.31;enable-background:new    ;}
	.st7{fill:#6F6F71;}
	.st8{fill:#6D6D6F;}
	.st9{fill:#E9721C;}
</style>
<title>trusted</title>
<g>
	<path class="st0" d="M24.3,3.7c0.8-0.8,1.5-1.5,2.3-2.3c0.3-0.3,0.6-0.6,1-1c0.1-0.1,0.2-0.1,0.3,0c0.5,0.5,1,1,1.5,1.5
		c0.1,0,0.1,0.2,0.1,0.2c0,0,0,0,0,0.1c-1,1.2-1.9,2.4-2.9,3.7c0,0,0,0,0,0.1c0,0.1-0.1,0.2-0.2,0.3c-0.8,1-1.5,1.9-2.3,2.9
		c-0.7,0.9-1.4,1.8-2.1,2.7c-1,1.3-2,2.6-3,3.8c-1.1,1.4-2.1,2.7-3.2,4.1c-0.2,0.3-0.5,0.6-0.7,0.9c0,0.1-0.1,0.1-0.2,0.1
		c-0.1,0-0.2-0.1-0.2-0.2c-2.4-2.4-4.8-4.9-7.1-7.3c-0.2-0.2-0.2-0.2,0-0.5c0.5-0.6,1.1-1.3,1.6-1.9c0.2-0.3,0.3-0.3,0.6-0.1
		c1.5,0.9,3,1.9,4.5,2.8c0.2,0.1,0.2,0.1,0.4,0c1.2-1.3,2.5-2.5,3.7-3.7c1-1,2-2,3-3c0.2-0.2,0.4-0.4,0.6-0.6
		c0.7-0.7,1.4-1.5,2.1-2.2C23.9,4,24.1,3.8,24.3,3.7z"/>
	<path class="st1" d="M14.7,30c-1.4,0-2.7-0.2-4.1-0.6c-4.3-1.3-7.4-4.1-9.3-8.2C0.6,19.6,0.1,17.8,0,16c0-0.3,0-0.7,0-1
		c0.1-0.1,0.2-0.1,0.2-0.1c1.1,0,2.2,0,3.3,0c0.1,0,0.1,0,0.1,0c0.1,0.1,0.1,0.2,0.1,0.3c0.1,5.5,4.1,10.1,9.4,10.8
		c0.4,0.1,0.8,0.1,1.2,0.1c0.1,0,0.2,0,0.3,0.1c0,0.1,0,0.2,0,0.3c0,1,0,2.1,0,3.1C14.8,29.8,14.7,29.9,14.7,30z"/>
	<path class="st2" d="M3.7,15L0,15c0-1.3,0.1-2.6,0.5-3.9C1.5,7,4.3,3.6,7.9,1.7c1.8-1,3.7-1.5,5.8-1.6c0.3,0,0.6,0,1,0
		c0.1,0.1,0.1,0.2,0.1,0.2c0,1.1,0,2.2,0,3.3c0,0.1,0,0.1,0,0.2c-0.1,0.1-0.2,0.2-0.3,0.1c-1.7,0-3.4,0.5-4.9,1.3
		c-1,0.6-1.9,1.3-2.7,2.1c-1.2,1.2-2,2.7-2.5,4.4c-0.3,0.8-0.4,1.7-0.5,2.6c0,0.2,0,0.4,0,0.6C3.8,14.9,3.8,15,3.7,15z"/>
	<path class="st3" d="M29.3,15c0,0.8,0,1.6-0.2,2.4c-0.3,2.1-1.1,4.1-2.3,5.9c-1.3,2-3,3.6-5,4.8c-0.1,0-0.1,0-0.2,0.1
		c-0.3-0.2-0.5-0.4-0.7-0.6c-0.6-0.7-1.3-1.3-1.9-2c-0.1,0-0.2-0.1-0.2-0.2c0-0.1,0.1-0.2,0.2-0.2c1.3-0.6,2.4-1.4,3.4-2.5
		c1.3-1.4,2.2-3.1,2.6-5c0.2-0.8,0.3-1.6,0.3-2.4c0-0.1,0-0.2,0.1-0.3c0.1,0,0.2,0,0.3,0c1,0,2,0,3.1,0C29.1,14.9,29.2,14.9,29.3,15
		z"/>
	<path class="st4" d="M14.7,3.8c0-1.3,0-2.5,0-3.8c1.4,0,2.8,0.2,4.1,0.6c2,0.6,3.9,1.7,5.5,3.1c-0.9,0.9-1.7,1.7-2.6,2.6
		c0,0-0.1,0-0.1,0.1c-0.1,0-0.2-0.1-0.3-0.1c-1.3-1-2.7-1.7-4.3-2.1c-0.7-0.2-1.4-0.3-2.2-0.3C14.8,3.9,14.7,3.9,14.7,3.8z"/>
	<path class="st5" d="M29.3,15l-3.7,0c-0.1-0.1-0.1-0.2-0.1-0.3c0-1.8-0.5-3.6-1.3-5.1c-0.1-0.2-0.2-0.3-0.3-0.5c0.8-1,1.6-2,2.4-3
		c0,0,0.1-0.1,0.1-0.1c1.3,1.7,2.2,3.7,2.6,5.8C29.2,12.8,29.3,13.9,29.3,15z"/>
	<path class="st0" d="M19,25.3c0,0.1,0.1,0.1,0.1,0.2c0.7,0.7,1.4,1.5,2.2,2.2c0.2,0.1,0.3,0.3,0.5,0.5c-1,0.6-2.1,1.1-3.2,1.4
		c-1,0.3-2,0.4-3.1,0.5c-0.3,0-0.5,0-0.8,0c0-1.3,0-2.5,0-3.8c0.1-0.1,0.1-0.1,0.2-0.1c1.4,0,2.7-0.3,4-0.9
		C18.9,25.3,18.9,25.2,19,25.3C19,25.2,19,25.2,19,25.3z"/>
	<path class="st6" d="M19,25.3c-0.7-0.7-1.3-1.4-2-2c-0.8-0.8-1.6-1.6-2.4-2.4c0.3-0.4,0.6-0.8,1-1.2c2.1-2.7,4.3-5.4,6.4-8.2
		c0.6-0.8,1.2-1.6,1.9-2.4c0.3,0.4,0.5,0.8,0.7,1.3c0.5,1.1,0.8,2.3,0.9,3.6c0,0.4,0,0.7,0.1,1.1c0,1.2-0.2,2.4-0.5,3.5
		C24.1,21.5,21.9,24,19,25.3C19,25.2,19,25.3,19,25.3L19,25.3z"/>
</g>
<g>
	<path class="st7" d="M34.6,4.4l0,1.2l-0.1,0c-0.1-0.3-0.3-0.7-0.5-0.9c-0.2-0.2-0.4-0.3-0.7-0.3c-0.2,0-0.4,0-0.6,0.1
		c-0.2,0.1-0.3,0.3-0.4,0.4C32.1,5.4,32,5.9,32,6.4c0,0.2,0,0.5,0.1,0.7c0.1,0.2,0.2,0.4,0.3,0.6c0.2,0.3,0.5,0.5,0.9,0.5
		c0.1,0,0.3,0,0.4-0.1c0.3-0.1,0.5-0.4,0.5-0.8c0-0.1,0-0.3-0.1-0.4c-0.1-0.1-0.3-0.1-0.5-0.1V6.8h1.7v0.1c-0.1,0-0.2,0-0.3,0.1
		c-0.1,0-0.1,0.1-0.1,0.2c0,0.2-0.1,0.3-0.1,0.5c0,0.1,0,0.2,0,0.3l0,0.1c0,0-0.1,0-0.2,0c-0.1,0-0.1,0-0.2,0.1
		c-0.2,0.1-0.4,0.2-0.5,0.3c-0.2,0.1-0.4,0.1-0.7,0.1c-0.3,0-0.6-0.1-0.9-0.2c-0.2-0.1-0.5-0.3-0.6-0.5c-0.1-0.2-0.2-0.4-0.3-0.6
		c-0.1-0.2-0.1-0.5-0.1-0.7c0-0.3,0.1-0.6,0.2-0.9C31.6,5.2,31.8,5,32,4.8c0.2-0.2,0.4-0.3,0.6-0.3c0.2-0.1,0.5-0.1,0.7-0.1
		c0.1,0,0.3,0,0.4,0c0.1,0,0.3,0.1,0.4,0.1l0.2,0.1c0,0,0.1,0,0.1,0C34.5,4.6,34.5,4.5,34.6,4.4L34.6,4.4L34.6,4.4z"/>
	<path class="st7" d="M35.4,7.1c0-0.3,0.1-0.6,0.3-0.8c0.5-0.5,1.3-0.6,1.8-0.1c0,0,0.1,0.1,0.1,0.1c0.4,0.4,0.4,1.1,0,1.6
		c-0.5,0.5-1.3,0.6-1.9,0.1c0,0,0,0-0.1-0.1c-0.1-0.1-0.2-0.2-0.2-0.4C35.4,7.3,35.4,7.2,35.4,7.1z M35.9,7c0,0.3,0.1,0.6,0.2,0.8
		c0.1,0.2,0.3,0.4,0.6,0.4c0.1,0,0.2,0,0.3-0.1c0.1-0.1,0.2-0.1,0.2-0.2c0.1-0.1,0.1-0.3,0.2-0.4c0-0.1,0.1-0.3,0.1-0.5
		c0-0.2,0-0.3-0.1-0.5c0-0.1-0.1-0.3-0.2-0.4c-0.1-0.2-0.3-0.3-0.5-0.3c-0.2,0-0.4,0.1-0.5,0.3C36,6.5,35.9,6.7,35.9,7z"/>
	<path class="st7" d="M38.3,7.1c0-0.3,0.1-0.6,0.3-0.8c0.5-0.5,1.3-0.6,1.8-0.1c0,0,0.1,0.1,0.1,0.1c0.4,0.4,0.4,1.1,0,1.6
		c-0.5,0.5-1.3,0.6-1.9,0.1c0,0,0,0-0.1-0.1c-0.1-0.1-0.2-0.2-0.2-0.4C38.3,7.3,38.3,7.2,38.3,7.1z M38.8,7c0,0.3,0.1,0.6,0.2,0.8
		c0.1,0.2,0.3,0.4,0.6,0.4c0.1,0,0.2,0,0.3-0.1C40,8.1,40,8,40.1,7.9c0.1-0.1,0.1-0.3,0.2-0.4c0-0.1,0.1-0.3,0.1-0.5
		c0-0.2,0-0.3-0.1-0.5c0-0.1-0.1-0.3-0.2-0.4C40,6,39.8,5.9,39.5,5.9c-0.2,0-0.4,0.1-0.5,0.3C38.9,6.5,38.8,6.7,38.8,7z"/>
	<path class="st7" d="M41.8,8.5L41.8,8.5c-0.1,0-0.1-0.1-0.1-0.1c0,0-0.1,0-0.1,0c-0.1,0-0.1,0-0.2,0.1c0,0.1-0.1,0.1-0.1,0.2
		c0,0.2,0.1,0.3,0.2,0.4c0.2,0.1,0.4,0.2,0.6,0.1c0.2,0,0.4,0,0.6-0.2c0.1-0.1,0.2-0.2,0.2-0.4c0-0.1-0.1-0.2-0.1-0.3
		c-0.1-0.1-0.3-0.1-0.4-0.1h-0.4c-0.2,0-0.3,0-0.4-0.1c-0.1-0.1-0.2-0.2-0.2-0.3c0-0.1,0.1-0.3,0.2-0.3c0.1-0.1,0.2-0.1,0.3-0.1
		c-0.1-0.1-0.3-0.2-0.4-0.3c-0.1-0.1-0.1-0.3-0.1-0.4c0-0.2,0.1-0.4,0.2-0.5c0.2-0.2,0.4-0.3,0.6-0.3c0.2,0,0.4,0.1,0.5,0.2
		c0.1-0.1,0.1-0.1,0.2-0.1c0.1,0,0.1,0,0.2,0c0.1,0,0.2,0,0.2,0.1c0.1,0,0.1,0.1,0.1,0.2c0,0,0,0.1,0,0.1c0,0-0.1,0-0.1,0
		c-0.1,0-0.1,0-0.2-0.1L43,6C43,6,42.9,6,42.9,6c-0.1,0-0.2,0-0.2,0.1c0.1,0.2,0.2,0.4,0.2,0.6c0,0.2-0.1,0.5-0.3,0.6
		c-0.1,0.1-0.2,0.1-0.3,0.1c0,0-0.2,0-0.3,0c-0.3,0-0.4,0.1-0.4,0.2c0,0.1,0.1,0.2,0.3,0.2h0.4c0.1,0,0.3,0,0.4,0
		c0.1,0,0.2,0.1,0.3,0.1c0.2,0.1,0.2,0.3,0.2,0.5c0,0.2-0.1,0.4-0.3,0.6c-0.3,0.2-0.5,0.2-0.8,0.2c-0.3,0-0.6-0.1-0.8-0.2
		c-0.1-0.1-0.2-0.2-0.2-0.4c0-0.1,0-0.2,0.1-0.3c0.1-0.1,0.2-0.1,0.3-0.1c0.1,0,0.1,0,0.2,0.1C41.7,8.3,41.8,8.4,41.8,8.5L41.8,8.5
		L41.8,8.5z M41.6,6.6c0,0.2,0,0.3,0.1,0.5c0.1,0.1,0.2,0.2,0.3,0.2c0.1,0,0.2-0.1,0.3-0.2c0.1-0.2,0.1-0.3,0.1-0.5
		c0-0.2,0-0.4-0.1-0.5c-0.1-0.1-0.2-0.2-0.3-0.2c-0.1,0-0.3,0.1-0.3,0.2c0,0.1-0.1,0.2-0.1,0.2C41.7,6.4,41.6,6.5,41.6,6.6z"/>
	<path class="st7" d="M43.4,4.4l0.8-0.1v3.1l0,0.2c0,0.1,0,0.2,0,0.3c0,0.1,0,0.1,0.1,0.1c0.1,0.1,0.2,0.1,0.3,0.1v0.1h-1.2V8.2
		c0.1,0,0.2,0,0.2-0.1c0.1,0,0.1-0.1,0.1-0.1c0-0.1,0-0.1,0-0.2c0-0.1,0-0.2,0-0.4V5.2c0-0.1,0-0.3,0-0.4c0-0.1,0-0.1-0.1-0.2
		c0,0-0.1-0.1-0.1-0.1C43.5,4.5,43.5,4.5,43.4,4.4L43.4,4.4z"/>
	<path class="st7" d="M45.3,6.7c0,0.1,0,0.2,0,0.2c0,0.2,0,0.3,0.1,0.5c0,0.1,0.1,0.3,0.2,0.4C45.7,8,46,8.1,46.2,8.1
		c0.1,0,0.2,0,0.3-0.1c0.1,0,0.2-0.1,0.2-0.1c0.1-0.1,0.1-0.2,0.2-0.3l0.1,0c0,0.2-0.1,0.4-0.3,0.5c-0.2,0.1-0.4,0.2-0.6,0.2
		c-0.2,0-0.4,0-0.6-0.1C45.3,8.1,45.1,8,45,7.8c-0.2-0.2-0.2-0.5-0.2-0.8c0-0.4,0.1-0.7,0.4-1c0.2-0.2,0.5-0.3,0.7-0.3
		c0.1,0,0.3,0,0.4,0.1c0.3,0.1,0.5,0.5,0.5,0.8L45.3,6.7L45.3,6.7z M46.5,6.6c0-0.1,0-0.3-0.1-0.4c0-0.1-0.1-0.2-0.2-0.2
		c-0.1-0.1-0.2-0.1-0.3-0.1c-0.2,0-0.3,0.1-0.4,0.2c-0.1,0.1-0.2,0.3-0.2,0.5C45.3,6.6,46.5,6.6,46.5,6.6z"/>
</g>
<g>
	<path class="st8" d="M34.4,17.2h-1.2V11h-2.1v-1h5.3v1h-2.1V17.2z"/>
	<path class="st8" d="M40.2,11.6c0.2,0,0.4,0,0.6,0l-0.1,1.1c-0.2,0-0.3-0.1-0.5-0.1c-0.4,0-0.8,0.1-1.1,0.5
		c-0.3,0.3-0.4,0.7-0.4,1.2v2.9h-1.1v-5.5h0.9l0.1,1h0.1c0.2-0.3,0.4-0.6,0.7-0.8C39.5,11.7,39.8,11.6,40.2,11.6z"/>
	<path class="st8" d="M45.5,17.2l-0.2-0.7h-0.1c-0.2,0.3-0.4,0.5-0.7,0.6c-0.3,0.1-0.7,0.2-1,0.2c-0.5,0-1-0.1-1.4-0.5
		c-0.3-0.4-0.5-1-0.5-1.5v-3.6h1.1v3.4c0,0.3,0.1,0.7,0.3,0.9c0.2,0.2,0.5,0.3,0.8,0.3c0.4,0,0.8-0.1,1-0.4c0.2-0.3,0.3-0.8,0.3-1.5
		v-2.7h1.1v5.5H45.5L45.5,17.2z"/>
	<path class="st8" d="M51.5,15.6c0,0.5-0.2,0.9-0.6,1.2c-0.5,0.3-1.1,0.5-1.6,0.4c-0.6,0-1.2-0.1-1.7-0.3v-1
		c0.5,0.3,1.1,0.4,1.7,0.4c0.7,0,1-0.2,1-0.6c0-0.1,0-0.2-0.1-0.3c-0.1-0.1-0.2-0.2-0.4-0.3c-0.2-0.1-0.5-0.2-0.7-0.3
		c-0.5-0.2-0.9-0.4-1.2-0.7c-0.2-0.3-0.3-0.6-0.3-0.9c0-0.4,0.2-0.8,0.6-1.1c0.5-0.3,1-0.4,1.5-0.4c0.6,0,1.2,0.1,1.8,0.4l-0.4,0.9
		c-0.5-0.2-0.9-0.3-1.4-0.4c-0.6,0-0.9,0.2-0.9,0.5c0,0.2,0.1,0.3,0.2,0.4c0.3,0.2,0.7,0.4,1,0.5c0.3,0.1,0.7,0.3,1,0.5
		c0.2,0.1,0.3,0.3,0.4,0.5C51.5,15.1,51.5,15.4,51.5,15.6z"/>
	<path class="st8" d="M54.7,16.3c0.3,0,0.6,0,0.8-0.1v0.9c-0.2,0.1-0.3,0.1-0.5,0.1c-0.2,0-0.4,0.1-0.6,0.1c-1.1,0-1.6-0.6-1.6-1.7
		v-2.9h-0.7v-0.5l0.8-0.4l0.4-1.2H54v1.2h1.5v0.9H54v2.9c0,0.2,0.1,0.5,0.2,0.6C54.4,16.3,54.5,16.3,54.7,16.3z"/>
	<path class="st8" d="M59,17.3c-0.7,0-1.4-0.2-1.9-0.7c-0.5-0.6-0.7-1.3-0.7-2c0-0.8,0.2-1.5,0.6-2.1c0.5-0.5,1.1-0.8,1.8-0.8
		c0.6,0,1.2,0.2,1.7,0.7c0.4,0.5,0.6,1.1,0.6,1.8v0.6h-3.5c0,0.4,0.1,0.9,0.4,1.2c0.3,0.3,0.7,0.5,1.1,0.4c0.3,0,0.6,0,0.9-0.1
		c0.3-0.1,0.6-0.2,0.9-0.3v0.9c-0.3,0.1-0.5,0.2-0.8,0.3C59.6,17.2,59.3,17.3,59,17.3z M58.8,12.5c-0.3,0-0.6,0.1-0.9,0.4
		c-0.2,0.3-0.4,0.6-0.4,1h2.4c0-0.4-0.1-0.7-0.3-1C59.4,12.6,59.1,12.5,58.8,12.5z"/>
	<path class="st8" d="M64.1,17.3c-0.6,0-1.2-0.2-1.6-0.7C62.2,16,62,15.3,62,14.4c0-0.9,0.2-1.6,0.6-2.1c0.4-0.5,1-0.8,1.6-0.7
		c0.6,0,1.2,0.3,1.6,0.8h0.1c0-0.3-0.1-0.6-0.1-0.9v-2h1.1v7.7H66l-0.2-0.7h-0.1C65.4,17,64.8,17.3,64.1,17.3z M64.4,16.3
		c0.4,0,0.8-0.1,1-0.4c0.2-0.4,0.4-0.8,0.3-1.3v-0.2c0-0.7-0.1-1.2-0.3-1.5c-0.3-0.3-0.6-0.5-1-0.4c-0.4,0-0.7,0.2-0.9,0.5
		c-0.2,0.4-0.4,0.9-0.3,1.4c0,0.5,0.1,1,0.3,1.4C63.7,16.2,64,16.3,64.4,16.3z"/>
	<path class="st8" d="M75.2,15.2c0,0.6-0.2,1.1-0.7,1.5c-0.5,0.4-1.2,0.6-1.9,0.5c-0.7,0-1.3-0.1-2-0.4v-1.1c0.3,0.2,0.7,0.3,1,0.4
		c0.3,0.1,0.7,0.1,1,0.1c0.4,0,0.7-0.1,1-0.3c0.2-0.2,0.3-0.4,0.3-0.7c0-0.3-0.1-0.5-0.3-0.7c-0.4-0.3-0.8-0.5-1.2-0.7
		c-0.5-0.2-1-0.5-1.4-0.9c-0.3-0.4-0.4-0.8-0.4-1.2c0-0.5,0.2-1.1,0.6-1.4c0.5-0.4,1.1-0.6,1.7-0.5c0.7,0,1.4,0.2,2,0.5l-0.4,1
		c-0.5-0.2-1.1-0.4-1.7-0.4c-0.3,0-0.6,0.1-0.8,0.2c-0.2,0.2-0.3,0.4-0.3,0.7c0,0.2,0,0.3,0.1,0.5c0.1,0.2,0.2,0.3,0.4,0.4
		c0.3,0.2,0.6,0.3,1,0.5c0.4,0.2,0.8,0.4,1.1,0.6c0.2,0.2,0.4,0.4,0.5,0.6C75.2,14.6,75.2,14.9,75.2,15.2z"/>
	<path class="st8" d="M78.4,16.3c0.3,0,0.6,0,0.8-0.1v0.9c-0.2,0.1-0.3,0.1-0.5,0.1c-0.2,0-0.4,0.1-0.6,0.1c-1.1,0-1.6-0.6-1.6-1.7
		v-2.9h-0.7v-0.5l0.8-0.4l0.4-1.2h0.7v1.2h1.5v0.9h-1.5v2.9c0,0.2,0.1,0.5,0.2,0.6C78,16.3,78.2,16.3,78.4,16.3z"/>
	<path class="st8" d="M85,14.4c0,0.8-0.2,1.5-0.7,2.1c-0.5,0.5-1.2,0.8-1.9,0.7c-0.5,0-0.9-0.1-1.3-0.3c-0.4-0.2-0.7-0.6-0.9-1
		c-0.2-0.5-0.3-1-0.3-1.5c0-0.8,0.2-1.5,0.7-2.1c0.5-0.5,1.2-0.8,1.9-0.7c0.7,0,1.4,0.2,1.8,0.8C84.8,12.9,85.1,13.7,85,14.4z
		 M81.2,14.4c0,1.3,0.5,1.9,1.4,1.9c0.9,0,1.3-0.6,1.3-1.9c0-1.2-0.5-1.9-1.4-1.9c-0.4,0-0.8,0.1-1,0.5
		C81.3,13.5,81.1,13.9,81.2,14.4L81.2,14.4z"/>
	<path class="st8" d="M89,11.6c0.2,0,0.4,0,0.6,0l-0.1,1.1c-0.2,0-0.3-0.1-0.5-0.1c-0.4,0-0.8,0.1-1.1,0.5c-0.3,0.3-0.4,0.7-0.4,1.2
		v2.9h-1.1v-5.5h0.9l0.1,1h0.1c0.2-0.3,0.4-0.6,0.7-0.8C88.4,11.7,88.7,11.6,89,11.6z"/>
	<path class="st8" d="M92.9,17.3c-0.7,0-1.4-0.2-1.9-0.7c-0.5-0.6-0.7-1.3-0.7-2c0-0.8,0.2-1.5,0.7-2.1c0.5-0.5,1.1-0.8,1.8-0.8
		c0.6,0,1.2,0.2,1.7,0.7c0.4,0.5,0.6,1.1,0.6,1.8v0.6h-3.5c0,0.4,0.1,0.9,0.4,1.2c0.3,0.3,0.7,0.5,1.1,0.4c0.3,0,0.6,0,0.9-0.1
		c0.3-0.1,0.6-0.2,0.9-0.3v0.9c-0.3,0.1-0.5,0.2-0.8,0.3C93.6,17.2,93.2,17.3,92.9,17.3z M92.7,12.5c-0.3,0-0.6,0.1-0.9,0.4
		c-0.2,0.3-0.4,0.6-0.4,1h2.4c0-0.4-0.1-0.7-0.3-1C93.3,12.6,93,12.5,92.7,12.5z"/>
</g>
<g>
	<polygon class="st9" points="34,19.6 34,24 32.5,25.1 33.1,22.9 31.5,21.8 33.5,21.7 	"/>
	<polygon class="st9" points="34,19.6 34,24 35.5,25.1 34.9,22.9 36.5,21.8 34.5,21.7 	"/>
</g>
<g>
	<polygon class="st9" points="39.9,19.6 39.9,24 38.4,25.1 39,22.9 37.4,21.8 39.4,21.7 	"/>
	<polygon class="st9" points="39.9,19.6 39.9,24 41.4,25.1 40.9,22.9 42.4,21.8 40.4,21.7 	"/>
</g>
<g>
	<polygon class="st9" points="45.8,19.6 45.8,24 44.3,25.1 44.9,22.9 43.3,21.8 45.4,21.7 	"/>
	<polygon class="st9" points="45.8,19.6 45.8,24 47.4,25.1 46.8,22.9 48.4,21.8 46.3,21.7 	"/>
</g>
<g>
	<polygon class="st9" points="51.8,19.6 51.8,24 50.2,25.1 50.8,22.9 49.2,21.8 51.3,21.7 	"/>
	<polygon class="st9" points="51.8,19.6 51.8,24 53.3,25.1 52.7,22.9 54.3,21.8 52.3,21.7 	"/>
</g>
<g>
	<polygon class="st9" points="57.7,19.6 57.7,24 56.2,25.1 56.7,22.9 55.2,21.8 57.2,21.7 	"/>
	<polygon class="st9" points="57.7,19.6 57.7,24 59.2,25.1 58.6,22.9 60.2,21.8 58.2,21.7 	"/>
</g>
</svg>
