<svg id="Layer_1" data-name="Layer 1" xmlns="http://www.w3.org/2000/svg" xmlns:xlink="http://www.w3.org/1999/xlink" viewBox="0 0 83.95407 31"><defs><linearGradient id="Безымянный_градиент" x1="10.80612" y1="35.43491" x2="26.68902" y2="64.99981" gradientTransform="matrix(1, 0, 0, -1, -4.9067, 60.023)" gradientUnits="userSpaceOnUse"><stop offset="0" stop-color="#636465"/><stop offset="0.0298" stop-color="#676869"/><stop offset="0.2659" stop-color="#828384"/><stop offset="0.5054" stop-color="#969798"/><stop offset="0.7484" stop-color="#a1a2a3"/><stop offset="1" stop-color="#a5a6a7"/></linearGradient><linearGradient id="Безымянный_градиент_2" x1="25.75355" y1="43.91745" x2="5.33825" y2="57.42465" gradientTransform="matrix(1, 0, 0, -1, -4.9067, 60.023)" gradientUnits="userSpaceOnUse"><stop offset="0" stop-color="#c4c5c6"/><stop offset="0.0977" stop-color="#dcdddd"/><stop offset="0.2067" stop-color="#f0f0f0"/><stop offset="0.3177" stop-color="#fbfbfb"/><stop offset="0.4326" stop-color="#fff"/><stop offset="0.5353" stop-color="#f6f7f7"/><stop offset="0.7001" stop-color="#dfdfe0"/><stop offset="0.905" stop-color="#b9babb"/><stop offset="1" stop-color="#a5a6a7"/></linearGradient><linearGradient id="Безымянный_градиент_3" x1="30.85747" y1="40.30474" x2="9.43707" y2="54.79504" gradientTransform="matrix(1, 0, 0, -1, -4.9067, 60.023)" gradientUnits="userSpaceOnUse"><stop offset="0" stop-color="#4c4c4e"/><stop offset="0.2192" stop-color="#636365"/><stop offset="0.4734" stop-color="#767778"/><stop offset="0.7321" stop-color="#818283"/><stop offset="1" stop-color="#858687"/></linearGradient><linearGradient id="Безымянный_градиент_4" x1="10.00044" y1="41.20553" x2="28.32954" y2="54.28933" gradientTransform="matrix(1, 0, 0, -1, -4.9067, 60.023)" gradientUnits="userSpaceOnUse"><stop offset="0" stop-color="#771a29"/><stop offset="0.6067" stop-color="#ad0335"/><stop offset="0.7079" stop-color="#ac0335"/><stop offset="1" stop-color="#761f40"/></linearGradient><radialGradient id="Безымянный_градиент_5" cx="-34.21848" cy="77.28866" r="47.4952" gradientTransform="matrix(0.4063, 0, 0, -0.4165, 25.5479, 41.462)" gradientUnits="userSpaceOnUse"><stop offset="0" stop-color="#ad0335"/><stop offset="0.4607" stop-color="#ac0335"/><stop offset="1" stop-color="#761f40"/></radialGradient><linearGradient id="Безымянный_градиент_6" x1="4.73204" y1="53.86711" x2="21.06564" y2="35.02781" xlink:href="#Безымянный_градиент_4"/></defs><title>McAfee__Secure1 svg</title><path d="M14.6,31S-1.7,25.3.2,2.1A59.03475,59.03475,0,0,1,14.6,0,56.094,56.094,0,0,1,29.1,2.1C31,25.3,14.6,31,14.6,31Z" transform="translate(-0.04593 0)" style="fill:url(#Безымянный_градиент)"/><path d="M14.6,31S-1.7,25.3.2,2.1A59.03475,59.03475,0,0,1,14.6,0,56.094,56.094,0,0,1,29.1,2.1L27.6,3.5l-13,26V31Z" transform="translate(-0.04593 0)" style="fill:url(#Безымянный_градиент_2)"/><path d="M14.6,29.5S-0.2,24.4,1.5,3.4A53.44326,53.44326,0,0,1,14.6,1.5,53.16054,53.16054,0,0,1,27.7,3.4C29.4,24.4,14.6,29.5,14.6,29.5Z" transform="translate(-0.04593 0)" style="fill:#fff;stroke:#1f1e21;stroke-linecap:round;stroke-width:0.5145000219345093px"/><path d="M14.6,29.5S-0.2,24.4,1.5,3.4A53.44326,53.44326,0,0,1,14.6,1.5,53.16054,53.16054,0,0,1,27.7,3.4C29.4,24.4,14.6,29.5,14.6,29.5Z" transform="translate(-0.04593 0)" style="fill:#fff"/><path d="M1.5,3.2H1.4V3.3c-0.9,10.9,2.8,17.5,6,21.1a20.199,20.199,0,0,0,7.3,5.3h0.2a20.199,20.199,0,0,0,7.3-5.3c3.2-3.6,6.9-10.2,6-21.1V3.2H28.1A53.58507,53.58507,0,0,0,14.6,1.3,54.51426,54.51426,0,0,0,1.5,3.2ZM14.8,1.6A50.82148,50.82148,0,0,1,27.6,3.5c0.1,1.1.1,2.3,0.1,3.3,0,8.8-3.2,14.5-6,17.6a18.9837,18.9837,0,0,1-7.1,5.1,18.9837,18.9837,0,0,1-7.1-5.1c-2.8-3.2-6-8.7-6-17.6,0-1,.1-2.2.2-3.3A59.03421,59.03421,0,0,1,14.8,1.6Z" transform="translate(-0.04593 0)" style="fill:url(#Безымянный_градиент_3)"/><path d="M14.6,26.9S2.2,22.3,3.6,4.6c0,0,5.4.4,11,.4s10.8-.4,11-0.4C27,22.3,14.6,26.9,14.6,26.9Z" transform="translate(-0.04593 0)" style="fill:url(#Безымянный_градиент_4)"/><path d="M14.6,25.4S3.9,21.4,5.1,6.2c0,0,4.7.4,9.5,0.4s9.4-.4,9.5-0.4C25.3,21.4,14.6,25.4,14.6,25.4Z" transform="translate(-0.04593 0)" style="fill:url(#Безымянный_градиент_5)"/><path d="M25.6,4.7c-0.2,0-5.5.4-11,.4s-11-.4-11-0.4L5.1,6.2s4.7,0.4,9.5.4,9.4-.4,9.5-0.4Z" transform="translate(-0.04593 0)" style="fill:#771a29"/><path d="M14.6,26.9S2.2,22.3,3.6,4.6L5.1,6.1c-1.2,15.2,9.5,19.2,9.5,19.2v1.6Z" transform="translate(-0.04593 0)" style="fill:url(#Безымянный_градиент_6)"/><polygon points="7.954 19.3 9.654 7.5 12.654 7.5 16.254 19.3 13.154 19.3 11.554 13.2 10.654 19.3 7.954 19.3" style="fill:#fff"/><polygon points="16.654 7.5 19.554 7.5 21.254 19.3 18.454 19.3 17.554 13.2 16.454 18 14.954 13.2 16.654 7.5" style="fill:#fff"/><path d="M39.8,13.2H37.5L35.3,7.5h0l-0.8,5.7H32L33.6,2.6H36ZM38.2,7.8l1.9-5.2h2.5L44,13.2H41.5L40.8,7.5h0l-1.4,3.4Z" transform="translate(-0.04593 0)" style="fill:#1f1e21"/><path d="M53.4,11.4l-0.6,1.8H50.3L53.8,2.6h2.6l3.4,10.6H57.3l-0.6-1.8H53.4ZM55,5.9h0L54,9.3h2Z" transform="translate(-0.04593 0)" style="fill:#1f1e21"/><path d="M72.2,10H67.4a1.37608,1.37608,0,0,0,1.4,1.6,1.08139,1.08139,0,0,0,1.1-.7h2.2a2.99689,2.99689,0,0,1-1.2,1.9,3.697,3.697,0,0,1-2.1.6,3.49146,3.49146,0,0,1-3.7-3.8,3.46845,3.46845,0,0,1,3.6-3.8c2.2,0,3.5,1.5,3.5,4V10h0ZM70.1,8.6a1.25839,1.25839,0,0,0-1.6-1.1,1.27338,1.27338,0,0,0-1.1,1.1h2.7Z" transform="translate(-0.04593 0)" style="fill:#1f1e21"/><path d="M80.2,10H75.4a1.37608,1.37608,0,0,0,1.4,1.6,1.08139,1.08139,0,0,0,1.1-.7h2.2a2.99689,2.99689,0,0,1-1.2,1.9,3.697,3.697,0,0,1-2.1.6,3.49146,3.49146,0,0,1-3.7-3.8,3.46845,3.46845,0,0,1,3.6-3.8c2.2,0,3.5,1.5,3.5,4V10h0ZM78,8.6a1.25839,1.25839,0,0,0-1.6-1.1,1.27338,1.27338,0,0,0-1.1,1.1H78Z" transform="translate(-0.04593 0)" style="fill:#1f1e21"/><path d="M80.5,4.6a1.79252,1.79252,0,0,1,1.8-1.8A1.71035,1.71035,0,0,1,84,4.6a1.79252,1.79252,0,0,1-1.8,1.8h0a1.774,1.774,0,0,1-1.7-1.8h0Zm0.3,0a1.5,1.5,0,1,0,3,0,1.538,1.538,0,0,0-1.5-1.5h0a1.47268,1.47268,0,0,0-1.5,1.5h0Zm2.2,1H82.7l-0.5-.9H81.8V5.6H81.5v-2h0.8c0.4,0,.7.1,0.7,0.5a0.63378,0.63378,0,0,1-.5.6H82.4ZM81.8,3.9V4.4h0.3c0.3,0,.6,0,0.6-0.2,0-.3-0.2-0.3-0.4-0.3H81.8Z" transform="translate(-0.04593 0)" style="fill:#1f1e21"/><path d="M60.6,7.8H59.3V6h1.4V5.2c0-2.1.9-2.9,2.7-2.9,0.4,0,.8.1,1.2,0.1L64.5,4.1c-0.3,0-.6-0.1-0.8-0.1-0.6,0-.8.4-0.8,1.1V6h1.6V7.7H62.9v5.4H60.6V7.8h0Z" transform="translate(-0.04593 0)" style="fill:#1f1e21"/><path d="M37.2,18.3a4.05817,4.05817,0,0,0-1.9-.4,1.4324,1.4324,0,0,0-1.7,1.3c0,1.9,4.3,1.5,4.3,4.7,0,2.1-1.6,3-3.7,3a7.78913,7.78913,0,0,1-2.1-.4l0.1-1.3a8.01828,8.01828,0,0,0,2.1.5,1.86374,1.86374,0,0,0,2-1.6c0-2.2-4.3-1.6-4.3-4.7,0-1.8,1.4-2.7,3.2-2.7a5.22236,5.22236,0,0,1,2.1.4Z" transform="translate(-0.04593 0)" style="fill:#1f1e21"/><path d="M39.9,16.8h5.6V18H41.3v2.9h3.8v1.3H41.3v3.3h4.2v1.3H39.9v-10Z" transform="translate(-0.04593 0)" style="fill:#1f1e21"/><path d="M54.1,18.4a3.83931,3.83931,0,0,0-5.9,3.3,3.70088,3.70088,0,0,0,3.5,3.9h0.2a5.44981,5.44981,0,0,0,2.2-.5l0.1,1.4a5.867,5.867,0,0,1-2.3.4,4.90933,4.90933,0,0,1-5.3-5.2,4.9358,4.9358,0,0,1,5.3-5.1,6.20023,6.20023,0,0,1,2.3.4Z" transform="translate(-0.04593 0)" style="fill:#1f1e21"/><path d="M63.2,22.6c0,2.8-1.4,4.3-3.9,4.3s-3.9-1.5-3.9-4.3V16.8h1.4v5.6c0,1.9.6,3.2,2.5,3.2s2.5-1.3,2.5-3.2V16.8h1.4v5.8Z" transform="translate(-0.04593 0)" style="fill:#1f1e21"/><path d="M65.5,16.8H68c2,0,3.9.3,3.9,2.7a2.36418,2.36418,0,0,1-2.1,2.3h0a1.65089,1.65089,0,0,1,1,1l1.9,4H71l-1.5-3.4a1.41413,1.41413,0,0,0-1.7-1H66.9v4.4H65.5v-10ZM66.9,21h1.2c1.4,0,2.2-.6,2.2-1.6,0-.9-0.7-1.5-2-1.5H66.9V21h0Z" transform="translate(-0.04593 0)" style="fill:#1f1e21"/><path d="M74.3,16.8h5.6V18H75.7v2.9h3.8v1.3H75.7v3.3h4.2v1.3H74.3v-10Z" transform="translate(-0.04593 0)" style="fill:#1f1e21"/><path d="M49.7,8.3a2.29592,2.29592,0,0,0-1.4-.4,1.72373,1.72373,0,0,0-1.7,2,1.88008,1.88008,0,0,0,1.8,1.9h0.1a3.19405,3.19405,0,0,0,1.4-.3v1.8a5.82226,5.82226,0,0,1-1.9.3,3.5429,3.5429,0,0,1-3.8-3.7A3.62021,3.62021,0,0,1,48,6.1a3.9222,3.9222,0,0,1,1.8.4Z" transform="translate(-0.04593 0)" style="fill:#1f1e21"/></svg>